# xmcd
#
# Track frame offsets: 
#        150
#        15376
#        32085
#        45554
#        61528
#        79064
#        92388
#        106341
#        114922
#        131963
#        150029
#        163982
#
# Disc length: 2304 seconds
#
# Revision: 0
# Processed by: cddbd v1.5.2PL0 Copyright (c) Steve Scherf et al.
# Submitted via: ExactAudioCopyFreeDBPlugin 1.0
#
DISCID=7f08fe0c
DTITLE=Jacob and The Jackals - Breaking The Spell
DYEAR=2010
DGENRE=Blues
TTITLE0=Mumbo Jumbo
TTITLE1=The Seventh Son
TTITLE2=Since I Met You Baby
TTITLE3=Wild About You Baby
TTITLE4=Cabbage Head
TTITLE5=Where's My Limousine?
TTITLE6=Mojo Bags and Black Cat Bones
TTITLE7=Can't Afford To Do It
TTITLE8=Can't Believe You Wanna Leave
TTITLE9=Going To Brownsville
TTITLE10=Goofer Dust
TTITLE11=Mama Don't Allow Me To Stay Out All Night Long
EXTD=
EXTT0=
EXTT1=
EXTT2=
EXTT3=
EXTT4=
EXTT5=
EXTT6=
EXTT7=
EXTT8=
EXTT9=
EXTT10=
EXTT11=
PLAYORDER=
